HIERARCHY
ROOT newVegas:Hips
{
	OFFSET 0.000000 96.479958 0.000000
	CHANNELS 6 Xposition Yposition Zposition Xrotation Yrotation Zrotation
	JOINT newVegas:Pelvis
	{
		OFFSET 0.000000 0.000000 0.000000
		CHANNELS 3 Xrotation Yrotation Zrotation
		JOINT newVegas:LeftUpLeg
		{
			OFFSET 18.735201 -5.666702 -4.541200
			CHANNELS 3 Xrotation Yrotation Zrotation
			JOINT newVegas:LeftLeg
			{
				OFFSET -0.021200 -31.938179 0.493100
				CHANNELS 3 Xrotation Yrotation Zrotation
				JOINT newVegas:LeftFoot
				{
					OFFSET 0.021200 -31.938179 -4.336299
					CHANNELS 3 Xrotation Yrotation Zrotation
					JOINT newVegas:LeftToeBase
					{
						OFFSET 0.943001 -26.722000 15.023500
						CHANNELS 3 Xrotation Yrotation Zrotation
						End Site
						{
							OFFSET 0.000000 30.670183 0.000000
						}
					}
				}
				JOINT newVegas:Left_PantLeg
				{
					OFFSET 0.663870 -9.044666 -1.108900
					CHANNELS 3 Xrotation Yrotation Zrotation
					End Site
					{
						OFFSET 1.415995 20.635357 0.000000
					}
				}
			}
		}
		JOINT newVegas:RightUpLeg
		{
			OFFSET -18.735201 -5.666702 -4.541200
			CHANNELS 3 Xrotation Yrotation Zrotation
			JOINT newVegas:RightLeg
			{
				OFFSET 0.018946 -31.938133 0.493100
				CHANNELS 3 Xrotation Yrotation Zrotation
				JOINT newVegas:RightFoot
				{
					OFFSET -0.018946 -31.938126 -4.336299
					CHANNELS 3 Xrotation Yrotation Zrotation
					JOINT newVegas:RightToeBase
					{
						OFFSET -0.943001 -26.722004 15.023500
						CHANNELS 3 Xrotation Yrotation Zrotation
						End Site
						{
							OFFSET 0.000000 30.670187 0.000000
						}
					}
				}
				JOINT newVegas:Right_PantLeg
				{
					OFFSET -0.661674 -9.044716 -1.108900
					CHANNELS 3 Xrotation Yrotation Zrotation
					End Site
					{
						OFFSET -1.415958 20.635269 0.000000
					}
				}
			}
		}
	}
	JOINT newVegas:Spine
	{
		OFFSET 0.000000 10.199997 -0.299500
		CHANNELS 3 Xrotation Yrotation Zrotation
		JOINT newVegas:Spine1
		{
			OFFSET 0.000000 11.900002 -1.516600
			CHANNELS 3 Xrotation Yrotation Zrotation
			JOINT newVegas:Spine2
			{
				OFFSET 0.000000 13.600006 -2.842500
				CHANNELS 3 Xrotation Yrotation Zrotation
				JOINT newVegas:Neck
				{
					OFFSET 0.000000 9.624100 -2.890100
					CHANNELS 3 Xrotation Yrotation Zrotation
					JOINT newVegas:Head
					{
						OFFSET 0.000000 14.068802 -1.351900
						CHANNELS 3 Xrotation Yrotation Zrotation
						JOINT newVegas:Hair_Back
						{
							OFFSET 0.000000 3.231903 -17.524799
							CHANNELS 3 Xrotation Yrotation Zrotation
							End Site
							{
								OFFSET 0.000000 19.849884 0.000000
							}
						}
						JOINT newVegas:Hair_Front
						{
							OFFSET 0.000000 31.260406 4.573800
							CHANNELS 3 Xrotation Yrotation Zrotation
							JOINT newVegas:Hair_Front1
							{
								OFFSET 0.000000 2.284103 11.993300
								CHANNELS 3 Xrotation Yrotation Zrotation
								JOINT newVegas:Hair_Front2
								{
									OFFSET 0.000000 2.284103 11.993300
									CHANNELS 3 Xrotation Yrotation Zrotation
									End Site
									{
										OFFSET 0.000000 12.208862 0.000000
									}
								}
							}
						}
						JOINT newVegas:Jowel
						{
							OFFSET 0.000000 -7.458206 6.864100
							CHANNELS 3 Xrotation Yrotation Zrotation
							End Site
							{
								OFFSET 0.000000 19.849884 0.000000
							}
						}
					}
				}
				JOINT newVegas:LeftShoulder
				{
					OFFSET 15.263000 10.923401 -0.547700
					CHANNELS 3 Xrotation Yrotation Zrotation
					JOINT newVegas:LeftArm
					{
						OFFSET 25.438599 -2.830597 -13.032500
						CHANNELS 3 Xrotation Yrotation Zrotation
						JOINT newVegas:LeftForeArm
						{
							OFFSET 29.960503 0.000000 0.000000
							CHANNELS 3 Xrotation Yrotation Zrotation
							JOINT newVegas:LeftHand
							{
								OFFSET 27.849251 0.000000 0.000000
								CHANNELS 3 Xrotation Yrotation Zrotation
								JOINT newVegas:LeftHandThumb1
								{
									OFFSET 4.487587 -3.305161 6.305391
									CHANNELS 3 Xrotation Yrotation Zrotation
									JOINT newVegas:LeftHandThumb2
									{
										OFFSET 5.480453 -3.164139 3.164143
										CHANNELS 3 Xrotation Yrotation Zrotation
										JOINT newVegas:LeftHandThumb3
										{
											OFFSET 5.159721 -2.978973 2.978967
											CHANNELS 3 Xrotation Yrotation Zrotation
											End Site
											{
												OFFSET 2.494507 5.926697 1.738678
											}
										}
									}
								}
								JOINT newVegas:LeftHandIndex1
								{
									OFFSET 18.578728 -0.527832 5.208049
									CHANNELS 3 Xrotation Yrotation Zrotation
									JOINT newVegas:LeftHandIndex2
									{
										OFFSET 3.192009 0.000000 0.000000
										CHANNELS 3 Xrotation Yrotation Zrotation
										JOINT newVegas:LeftHandIndex3
										{
											OFFSET 3.835129 0.000000 0.000000
											CHANNELS 3 Xrotation Yrotation Zrotation
											End Site
											{
												OFFSET -0.034599 3.816971 0.371180
											}
										}
									}
								}
								JOINT newVegas:LeftHandMiddle1
								{
									OFFSET 18.476105 0.000000 0.000000
									CHANNELS 3 Xrotation Yrotation Zrotation
									JOINT newVegas:LeftHandMiddle2
									{
										OFFSET 3.324875 0.000000 0.000000
										CHANNELS 3 Xrotation Yrotation Zrotation
										JOINT newVegas:LeftHandMiddle3
										{
											OFFSET 4.596550 0.000000 0.000000
											CHANNELS 3 Xrotation Yrotation Zrotation
											End Site
											{
												OFFSET 0.057701 4.578827 0.399218
											}
										}
									}
								}
								JOINT newVegas:LeftHandRing1
								{
									OFFSET 17.732719 0.121887 -4.201567
									CHANNELS 3 Xrotation Yrotation Zrotation
									JOINT newVegas:LeftHandRing2
									{
										OFFSET 2.733170 0.000000 0.000000
										CHANNELS 3 Xrotation Yrotation Zrotation
										JOINT newVegas:LeftHandRing3
										{
											OFFSET 3.178268 0.000000 0.000000
											CHANNELS 3 Xrotation Yrotation Zrotation
											End Site
											{
												OFFSET 0.119102 3.170624 0.185394
											}
										}
									}
								}
								JOINT newVegas:LeftHandPinky1
								{
									OFFSET 15.989624 -0.606689 -7.535461
									CHANNELS 3 Xrotation Yrotation Zrotation
									JOINT newVegas:LeftHandPinky2
									{
										OFFSET 2.538986 0.000000 0.000000
										CHANNELS 3 Xrotation Yrotation Zrotation
										JOINT newVegas:LeftHandPinky3
										{
											OFFSET 2.593102 0.000000 0.000000
											CHANNELS 3 Xrotation Yrotation Zrotation
											End Site
											{
												OFFSET -0.150902 2.584198 0.152708
											}
										}
									}
								}
							}
							JOINT newVegas:Left_Sleeve
							{
								OFFSET 0.267448 -0.649796 0.577675
								CHANNELS 3 Xrotation Yrotation Zrotation
								End Site
								{
									OFFSET 0.000000 15.991241 0.000000
								}
							}
							JOINT newVegas:Left_CapeC
							{
								OFFSET 15.715958 -8.608795 -6.935905
								CHANNELS 3 Xrotation Yrotation Zrotation
								JOINT newVegas:Left_CapeC1
								{
									OFFSET 0.000000 -8.688499 0.000000
									CHANNELS 3 Xrotation Yrotation Zrotation
									End Site
									{
										OFFSET 0.000000 8.688499 0.000000
									}
								}
							}
						}
						JOINT newVegas:Left_CapeB
						{
							OFFSET 26.118385 -8.608795 -7.079235
							CHANNELS 3 Xrotation Yrotation Zrotation
							JOINT newVegas:Left_CapeB1
							{
								OFFSET 0.000000 -8.688499 0.000000
								CHANNELS 3 Xrotation Yrotation Zrotation
								End Site
								{
									OFFSET 0.000000 8.688499 0.000000
								}
							}
						}
						JOINT newVegas:Left_CapeA
						{
							OFFSET 5.115639 -8.608795 -10.395809
							CHANNELS 3 Xrotation Yrotation Zrotation
							JOINT newVegas:Left_CapeA1
							{
								OFFSET 0.000000 -8.688499 0.000000
								CHANNELS 3 Xrotation Yrotation Zrotation
								End Site
								{
									OFFSET 0.000000 8.688499 0.000000
								}
							}
						}
					}
				}
				JOINT newVegas:RightShoulder
				{
					OFFSET -15.263000 10.923401 -0.547700
					CHANNELS 3 Xrotation Yrotation Zrotation
					JOINT newVegas:RightArm
					{
						OFFSET -25.438599 -2.830597 -13.032500
						CHANNELS 3 Xrotation Yrotation Zrotation
						JOINT newVegas:RightForeArm
						{
							OFFSET -29.960503 0.000000 0.000000
							CHANNELS 3 Xrotation Yrotation Zrotation
							JOINT newVegas:RightHand
							{
								OFFSET -27.849251 0.000000 0.000000
								CHANNELS 3 Xrotation Yrotation Zrotation
								JOINT newVegas:RightHandThumb1
								{
									OFFSET -4.487587 -3.305161 6.305391
									CHANNELS 3 Xrotation Yrotation Zrotation
									JOINT newVegas:RightHandThumb2
									{
										OFFSET -5.480453 -3.164139 3.164143
										CHANNELS 3 Xrotation Yrotation Zrotation
										JOINT newVegas:RightHandThumb3
										{
											OFFSET -5.159721 -2.978973 2.978967
											CHANNELS 3 Xrotation Yrotation Zrotation
											End Site
											{
												OFFSET -2.494507 5.926697 1.738678
											}
										}
									}
								}
								JOINT newVegas:RightHandIndex1
								{
									OFFSET -18.578728 -0.527832 5.208049
									CHANNELS 3 Xrotation Yrotation Zrotation
									JOINT newVegas:RightHandIndex2
									{
										OFFSET -3.192009 0.000000 0.000000
										CHANNELS 3 Xrotation Yrotation Zrotation
										JOINT newVegas:RightHandIndex3
										{
											OFFSET -3.835129 0.000000 0.000000
											CHANNELS 3 Xrotation Yrotation Zrotation
											End Site
											{
												OFFSET 0.034599 3.816971 0.371180
											}
										}
									}
								}
								JOINT newVegas:RightHandMiddle1
								{
									OFFSET -18.476105 0.000000 0.000000
									CHANNELS 3 Xrotation Yrotation Zrotation
									JOINT newVegas:RightHandMiddle2
									{
										OFFSET -3.324875 0.000000 0.000000
										CHANNELS 3 Xrotation Yrotation Zrotation
										JOINT newVegas:RightHandMiddle3
										{
											OFFSET -4.596550 0.000000 0.000000
											CHANNELS 3 Xrotation Yrotation Zrotation
											End Site
											{
												OFFSET -0.057701 4.578827 0.399218
											}
										}
									}
								}
								JOINT newVegas:RightHandRing1
								{
									OFFSET -17.732719 0.121887 -4.201567
									CHANNELS 3 Xrotation Yrotation Zrotation
									JOINT newVegas:RightHandRing2
									{
										OFFSET -2.733170 0.000000 0.000000
										CHANNELS 3 Xrotation Yrotation Zrotation
										JOINT newVegas:RightHandRing3
										{
											OFFSET -3.178268 0.000000 0.000000
											CHANNELS 3 Xrotation Yrotation Zrotation
											End Site
											{
												OFFSET -0.119102 3.170624 0.185394
											}
										}
									}
								}
								JOINT newVegas:RightHandPinky1
								{
									OFFSET -15.989624 -0.606689 -7.535461
									CHANNELS 3 Xrotation Yrotation Zrotation
									JOINT newVegas:RightHandPinky2
									{
										OFFSET -2.538986 0.000000 0.000000
										CHANNELS 3 Xrotation Yrotation Zrotation
										JOINT newVegas:RightHandPinky3
										{
											OFFSET -2.593102 0.000000 0.000000
											CHANNELS 3 Xrotation Yrotation Zrotation
											End Site
											{
												OFFSET 0.150902 2.584198 0.152708
											}
										}
									}
								}
							}
							JOINT newVegas:Right_CapeC
							{
								OFFSET -15.715958 -8.608795 -6.935905
								CHANNELS 3 Xrotation Yrotation Zrotation
								JOINT newVegas:Right_CapeC1
								{
									OFFSET 0.000000 -8.688499 0.000000
									CHANNELS 3 Xrotation Yrotation Zrotation
									End Site
									{
										OFFSET 0.000000 8.688499 0.000000
									}
								}
							}
							JOINT newVegas:Right_Sleeve
							{
								OFFSET -0.267448 -0.649994 0.577675
								CHANNELS 3 Xrotation Yrotation Zrotation
								End Site
								{
									OFFSET 0.000000 15.991302 0.000000
								}
							}
						}
						JOINT newVegas:Right_CapeA
						{
							OFFSET -5.115540 -8.608795 -10.395824
							CHANNELS 3 Xrotation Yrotation Zrotation
							JOINT newVegas:Right_CapeA1
							{
								OFFSET 0.000000 -8.688499 0.000000
								CHANNELS 3 Xrotation Yrotation Zrotation
								End Site
								{
									OFFSET 0.000000 8.688499 0.000000
								}
							}
						}
						JOINT newVegas:Right_CapeB
						{
							OFFSET -26.118187 -8.608795 -7.079266
							CHANNELS 3 Xrotation Yrotation Zrotation
							JOINT newVegas:Right_CapeB1
							{
								OFFSET 0.000000 -8.688499 0.000000
								CHANNELS 3 Xrotation Yrotation Zrotation
								End Site
								{
									OFFSET 0.000000 8.688499 0.000000
								}
							}
						}
					}
				}
				JOINT newVegas:Left_Collar
				{
					OFFSET 18.625099 8.655502 8.828100
					CHANNELS 3 Xrotation Yrotation Zrotation
					JOINT newVegas:Left_Collar1
					{
						OFFSET 14.783401 10.540405 -1.259500
						CHANNELS 3 Xrotation Yrotation Zrotation
						End Site
						{
							OFFSET 0.000000 18.199875 0.000000
						}
					}
				}
				JOINT newVegas:Collar_Back
				{
					OFFSET 0.000000 15.630707 -20.132601
					CHANNELS 3 Xrotation Yrotation Zrotation
					End Site
					{
						OFFSET 0.000000 22.523010 0.000000
					}
				}
				JOINT newVegas:Left_Peck
				{
					OFFSET 17.239599 -5.132599 25.482599
					CHANNELS 3 Xrotation Yrotation Zrotation
					End Site
					{
						OFFSET 0.000000 22.523010 0.000000
					}
				}
				JOINT newVegas:Right_Peck
				{
					OFFSET -17.239599 -5.132202 25.482599
					CHANNELS 3 Xrotation Yrotation Zrotation
					End Site
					{
						OFFSET 0.000000 22.523010 0.000000
					}
				}
				JOINT newVegas:Right_Collar
				{
					OFFSET -18.625099 8.655792 8.828100
					CHANNELS 3 Xrotation Yrotation Zrotation
					JOINT newVegas:Right_Collar1
					{
						OFFSET -14.783401 10.539993 -1.259500
						CHANNELS 3 Xrotation Yrotation Zrotation
						End Site
						{
							OFFSET 0.000000 18.199631 0.000000
						}
					}
				}
			}
		}
		JOINT newVegas:Belly
		{
			OFFSET 0.000000 -6.540398 9.014299
			CHANNELS 3 Xrotation Yrotation Zrotation
			End Site
			{
				OFFSET 0.000000 11.566666 0.000000
			}
		}
	}
	JOINT newVegas:ElvisFacialAnim_Joint
	{
		OFFSET 1.000000 -95.330101 -8.825800
		CHANNELS 3 Xrotation Yrotation Zrotation
		End Site
		{
			OFFSET 0.000000 35.315800 0.000000
		}
	}
}
MOTION
Frames: 4
Frame Time: 0.033333
-5.287009 94.402260 3.386925 -6.113131 -1.217802 2.716916 -0.000000 0.000000 -0.000000 -6.830848 17.527346 12.117393 10.016978 2.585862 3.392339 4.344289 -0.128731 -14.902730 -0.000000 0.000000 0.000000 0.000000 0.000001 0.000001 -6.028767 -8.158976 1.764189 28.005802 0.359384 -4.333215 -16.673986 -12.011533 -2.232649 -0.000000 -0.000002 -0.000000 -0.000001 0.000000 -0.000001 2.661091 -0.224451 4.290005 0.272234 -2.718991 4.220587 0.213763 -2.720900 4.204991 3.839353 0.457161 -0.312194 3.839353 0.457161 -0.312205 0.000001 0.000000 0.000002 3.839356 0.457161 -0.312196 3.839347 0.457171 -0.312202 0.000001 -0.000000 -0.000002 0.000001 0.000000 0.000002 1.704425 -20.129925 -8.568798 -30.306570 -22.478598 -61.861911 -0.000006 -23.177538 -0.000007 -45.494193 -5.387619 -0.745246 2.436802 5.662991 -1.602890 6.223887 16.709766 9.260762 0.000003 -0.000003 -0.000001 1.459937 -5.355986 10.178981 0.182234 1.451385 -14.314344 0.000000 -0.000002 0.000000 -0.736311 1.076080 -19.459002 0.624600 2.634022 -26.675114 0.000000 0.000003 0.000001 -0.495034 2.577679 -26.165946 0.442634 2.235764 -22.394182 -0.000000 -0.000001 0.000000 0.874847 6.223390 -28.593269 0.749741 2.869344 -29.281598 -0.000000 -0.000003 -0.000003 0.000002 -0.000001 -0.000000 0.000002 -0.000001 -0.000000 0.000001 -0.000000 -0.000000 -0.000000 0.000003 -0.000000 -0.000000 0.000002 0.000001 -0.000000 0.000003 -0.000000 -0.000000 0.000002 -0.000000 0.939294 10.990710 16.505273 15.692008 19.729452 49.291218 -0.000004 5.036142 -0.000013 -17.796971 -3.031184 6.219014 -2.092185 -1.421389 -5.009713 12.613893 -29.794265 -16.405496 0.000001 -0.000002 -0.000001 0.091073 0.984530 7.190628 0.213614 -1.395686 17.402562 0.000002 0.000001 -0.000004 -0.134055 -2.246318 15.374122 0.217031 -1.406534 17.542272 0.000001 0.000000 0.000003 -0.002524 -2.994581 20.609959 0.314492 -1.683963 21.155003 -0.000000 0.000002 0.000003 0.728021 -4.910493 26.360678 0.216627 -1.405245 17.525832 0.000001 0.000003 -0.000001 -0.000003 0.000000 -0.000000 -0.000003 0.000000 0.000000 -0.000003 0.000001 0.000000 -0.000001 -0.000001 0.000001 -0.000001 0.000000 0.000001 -0.000001 -0.000001 0.000001 -0.000001 -0.000000 0.000001 -0.000000 0.000000 0.000001 -0.000000 0.000000 0.000001 -0.000000 0.000000 0.000001 -0.000000 0.000000 0.000001 -0.000000 0.000000 0.000001 -0.000000 0.000000 0.000001 -0.000000 0.000000 0.000001 -0.000000 0.000000 -0.000000 -0.000000 0.000000 -0.000000 
-5.239745 94.389229 3.422759 -6.017322 -1.478985 2.650264 0.000000 0.000000 -0.000000 -6.963544 17.487361 12.147723 10.406000 2.603526 3.412771 4.055336 0.150046 -14.900961 0.000000 -0.000000 0.000000 0.000000 0.000002 0.000001 -6.204779 -7.741774 1.739877 28.050649 0.290093 -4.138430 -16.623789 -12.021556 -2.260952 0.000000 -0.000000 0.000000 0.000000 -0.000000 -0.000000 2.674441 -0.197238 4.297660 0.290453 -2.674512 4.232709 0.232419 -2.676402 4.217661 3.765721 0.479624 -0.206100 3.765720 0.479625 -0.206103 0.000000 -0.000000 -0.000001 3.765728 0.479642 -0.206117 3.765714 0.479615 -0.206105 0.000000 0.000000 -0.000002 0.000000 -0.000000 0.000001 1.650954 -20.554425 -9.065515 -26.535748 -24.137740 -63.163506 -0.000000 -17.172902 0.000001 -44.976813 -6.064845 -5.083684 2.938938 5.818094 -2.469578 8.174329 17.521827 9.388168 0.000001 0.000002 -0.000002 1.258768 -4.467530 8.533961 0.188064 1.473925 -14.541746 0.000000 0.000003 -0.000000 -0.554503 1.536534 -19.058712 0.533930 2.445405 -24.629182 -0.000005 0.000004 -0.000000 -0.311070 2.865214 -25.162519 0.419675 2.179240 -21.798071 -0.000000 -0.000002 -0.000001 0.901851 6.256736 -28.862091 0.615326 2.615528 -26.472903 0.000001 -0.000002 -0.000001 -0.000003 -0.000001 -0.000000 -0.000003 -0.000001 -0.000000 -0.000004 -0.000001 -0.000000 -0.000000 -0.000001 0.000003 -0.000000 -0.000002 0.000003 -0.000000 -0.000001 0.000003 -0.000001 -0.000002 0.000002 0.930218 10.790879 16.591665 15.421205 19.931826 49.145141 -0.000003 5.072932 -0.000004 -17.931791 -2.979624 6.144355 -2.080049 -1.414828 -4.980679 12.602633 -29.790451 -16.437287 -0.000000 -0.000003 -0.000001 0.088248 0.976597 7.259825 0.212582 -1.392394 17.360241 0.000000 0.000001 0.000001 -0.136258 -2.245146 15.453177 0.217096 -1.406745 17.545103 -0.000001 0.000001 0.000004 -0.000923 -3.002293 20.680549 0.314232 -1.683307 21.146377 -0.000000 0.000001 0.000001 0.723406 -4.899357 26.504103 0.215007 -1.400130 17.459830 0.000000 0.000002 -0.000002 -0.000000 0.000000 0.000001 -0.000000 0.000000 0.000000 -0.000000 0.000000 0.000001 -0.000001 -0.000001 0.000000 -0.000001 -0.000001 0.000001 -0.000001 -0.000001 0.000000 -0.000001 -0.000001 0.000001 -0.000000 -0.000001 -0.000001 -0.000000 -0.000001 -0.000001 -0.000000 -0.000001 -0.000001 -0.000000 -0.000001 -0.000001 -0.000000 -0.000001 -0.000001 -0.000000 -0.000001 -0.000001 -0.000000 -0.000001 -0.000001 0.000000 0.000000 0.000000 0.000000 0.000000 -0.000000 
-5.197169 94.368637 3.469065 -5.920387 -1.715958 2.576064 -0.000000 0.000000 -0.000000 -7.152936 17.426155 12.177257 10.875110 2.833234 3.505051 3.714526 0.203643 -14.913428 -0.000000 -0.000001 0.000000 -0.000000 0.000001 0.000001 -6.369113 -7.358738 1.720694 28.104669 0.223845 -3.934923 -16.598205 -12.019578 -2.297652 0.000000 0.000002 0.000000 -0.000001 0.000001 -0.000001 2.706469 -0.172588 4.303668 0.329971 -2.634521 4.241970 0.272271 -2.635992 4.228118 3.684067 0.499516 -0.087729 3.684076 0.499516 -0.087718 0.000000 -0.000001 -0.000001 3.684068 0.499523 -0.087729 3.684137 0.499497 -0.087719 0.000001 -0.000000 -0.000000 0.000000 -0.000001 0.000001 1.631288 -21.383051 -9.464632 -23.218171 -24.996828 -65.196669 -0.000006 -9.898673 -0.000019 -44.435630 -6.662294 -7.901757 4.899018 6.075560 -3.344291 9.701555 18.909725 10.996689 0.000002 -0.000001 -0.000003 1.292649 -3.163543 6.340505 0.190414 1.482964 -14.632879 0.000000 0.000001 0.000001 -0.178953 2.699293 -19.771825 0.454670 2.264747 -22.700936 0.000001 0.000001 -0.000000 0.056643 3.674524 -25.605817 0.401871 2.134232 -21.325130 0.000001 -0.000001 -0.000001 1.410134 6.795297 -30.349075 0.503445 2.377894 -23.905198 0.000002 -0.000002 0.000002 -0.000002 -0.000001 0.000001 -0.000002 -0.000001 0.000001 -0.000003 -0.000001 0.000001 -0.000001 -0.000002 0.000000 -0.000001 -0.000003 -0.000002 -0.000001 -0.000002 0.000000 -0.000002 -0.000001 0.000000 0.930533 10.620071 16.604994 15.034804 20.185454 49.087607 -0.000007 5.123888 0.000005 -18.152934 -2.911690 6.072940 -2.055386 -1.368088 -4.937139 12.594642 -29.787770 -16.459899 0.000001 -0.000002 -0.000003 0.086845 0.972665 7.295959 0.212269 -1.391402 17.347473 -0.000001 0.000001 0.000001 -0.137155 -2.245043 15.489356 0.217133 -1.406848 17.546385 0.000000 0.000001 0.000005 0.003415 -3.015411 20.713785 0.314105 -1.682967 21.141978 0.000002 0.000002 -0.000001 0.720837 -4.893459 26.574477 0.215219 -1.400779 17.468342 0.000001 0.000002 0.000001 0.000000 0.000000 -0.000000 0.000000 0.000000 -0.000001 0.000000 0.000001 -0.000000 0.000001 0.000002 -0.000000 0.000001 0.000002 -0.000000 0.000001 0.000002 -0.000000 0.000001 0.000002 -0.000000 -0.000000 0.000000 -0.000002 -0.000000 0.000000 -0.000002 -0.000000 0.000000 -0.000002 -0.000000 0.000000 -0.000002 -0.000000 0.000000 -0.000002 -0.000000 0.000000 -0.000002 -0.000000 0.000000 -0.000002 0.000000 0.000000 -0.000000 -0.000000 0.000000 -0.000000 
-5.162888 94.332848 3.521954 -5.789122 -1.957872 2.479675 -0.000000 0.000000 0.000000 -7.470449 17.378177 12.280758 11.506124 3.044146 3.583491 3.284911 0.253185 -14.934835 -0.000000 -0.000000 0.000000 0.000000 -0.000001 0.000000 -6.576399 -7.006988 1.715070 28.186362 0.186776 -3.709808 -16.593762 -12.001573 -2.360495 -0.000000 0.000000 -0.000000 -0.000001 -0.000001 -0.000000 2.761044 -0.158555 4.306937 0.395228 -2.612288 4.245661 0.337686 -2.612837 4.233683 3.577904 0.513992 0.037630 3.577903 0.513991 0.037634 0.000001 0.000000 0.000001 3.577977 0.513986 0.037644 3.577908 0.514006 0.037627 0.000000 0.000000 -0.000001 0.000001 0.000000 0.000001 1.645987 -22.594254 -9.745526 -18.684546 -24.503544 -66.827664 -0.000003 -6.759673 -0.000017 -43.598327 -5.293443 -6.929270 7.806268 6.461280 -3.617617 10.588166 20.893750 14.095433 0.000001 0.000000 -0.000004 1.524792 -1.795242 4.491733 0.188436 1.475366 -14.556381 0.000000 0.000003 -0.000001 0.306157 4.067917 -20.611160 0.389148 2.101386 -20.980948 0.000003 -0.000002 0.000000 0.497316 4.608030 -26.547941 0.390824 2.105698 -21.026189 0.000005 -0.000004 -0.000004 1.998294 7.372600 -32.030640 0.415570 2.168973 -21.689995 -0.000000 -0.000005 -0.000001 0.000002 -0.000001 0.000001 0.000002 -0.000001 0.000001 0.000001 -0.000001 0.000001 0.000000 0.000000 -0.000001 0.000000 -0.000001 -0.000003 0.000000 0.000000 -0.000001 -0.000001 0.000001 -0.000001 0.942233 10.452128 16.528955 14.594414 20.652837 49.060924 -0.000003 5.219052 0.000021 -18.321760 -2.803543 6.082257 -2.037758 -1.329389 -4.896352 12.588144 -29.785646 -16.478311 -0.000001 -0.000001 0.000001 0.086437 0.962429 7.335203 0.212858 -1.393284 17.371697 -0.000000 0.000002 0.000002 -0.136823 -2.251633 15.551624 0.217051 -1.406597 17.543150 0.000001 -0.000000 0.000001 0.004368 -3.020125 20.759448 0.314300 -1.683485 21.148706 0.000001 -0.000001 -0.000003 0.722162 -4.889792 26.646684 0.216230 -1.403985 17.509566 0.000002 0.000003 -0.000004 -0.000002 -0.000001 0.000000 -0.000002 -0.000001 0.000000 -0.000002 -0.000001 0.000001 -0.000002 -0.000001 0.000001 -0.000002 -0.000001 0.000001 -0.000002 -0.000001 0.000001 -0.000002 -0.000001 0.000001 0.000000 -0.000000 -0.000000 0.000000 -0.000000 -0.000000 0.000000 -0.000000 -0.000000 0.000000 -0.000000 -0.000000 0.000000 -0.000000 -0.000000 0.000000 -0.000000 -0.000000 0.000000 -0.000000 -0.000000 -0.000000 -0.000000 0.000000 -0.000000 0.000000 0.000000 
